<svg xmlns="http://www.w3.org/2000/svg" viewBox="0 0 100 100" fill="none">
  <defs>
    <linearGradient id="classGradient" x1="0%" y1="0%" x2="100%" y2="100%">
      <stop offset="0%" style="stop-color:#fd79a8;stop-opacity:1" />
      <stop offset="100%" style="stop-color:#e84393;stop-opacity:1" />
    </linearGradient>
  </defs>
  <!-- Computer screen -->
  <rect x="15" y="20" width="70" height="45" rx="8" fill="url(#classGradient)" stroke="#fff" stroke-width="2"/>
  
  <!-- Screen content -->
  <rect x="20" y="25" width="60" height="35" rx="4" fill="rgba(255,255,255,0.9)"/>
  
  <!-- Video player -->
  <rect x="25" y="30" width="50" height="25" rx="3" fill="rgba(0,0,0,0.8)"/>
  
  <!-- Play button -->
  <polygon points="45,40 45,50 55,45" fill="#fff"/>
  
  <!-- Yoga pose silhouette -->
  <g transform="translate(50, 42)">
    <!-- Head -->
    <circle cx="0" cy="-8" r="3" fill="#fff" opacity="0.8"/>
    <!-- Body -->
    <path d="M0 -5 L0 5" stroke="#fff" stroke-width="2" opacity="0.8"/>
    <!-- Arms -->
    <path d="M-5 -2 L5 -2" stroke="#fff" stroke-width="2" opacity="0.8"/>
    <!-- Legs -->
    <path d="M0 5 L-3 12" stroke="#fff" stroke-width="2" opacity="0.8"/>
    <path d="M0 5 L3 12" stroke="#fff" stroke-width="2" opacity="0.8"/>
  </g>
  
  <!-- Computer base -->
  <rect x="30" y="65" width="40" height="8" rx="4" fill="url(#classGradient)" stroke="#fff" stroke-width="1"/>
  
  <!-- Decorative elements -->
  <circle cx="25" cy="35" r="2" fill="#fff" opacity="0.6"/>
  <circle cx="75" cy="35" r="2" fill="#fff" opacity="0.6"/>
  <circle cx="50" cy="70" r="2" fill="#fff" opacity="0.6"/>
  
  <!-- Connection lines -->
  <path d="M20 45 L15 45" stroke="#fff" stroke-width="2" opacity="0.6"/>
  <path d="M80 45 L85 45" stroke="#fff" stroke-width="2" opacity="0.6"/>
</svg>
