<svg xmlns="http://www.w3.org/2000/svg" viewBox="0 0 100 100" fill="none">
  <defs>
    <linearGradient id="sockGradient" x1="0%" y1="0%" x2="100%" y2="100%">
      <stop offset="0%" style="stop-color:#ffeaa7;stop-opacity:1" />
      <stop offset="100%" style="stop-color:#fab1a0;stop-opacity:1" />
    </linearGradient>
  </defs>
  <!-- Left sock -->
  <g transform="translate(15, 30)">
    <ellipse cx="15" cy="20" rx="12" ry="18" fill="url(#sockGradient)" stroke="#fff" stroke-width="2"/>
    <ellipse cx="15" cy="20" rx="10" ry="16" fill="rgba(255,255,255,0.2)"/>
    <path d="M8 15 Q15 10 22 15" stroke="#fff" stroke-width="2" fill="none"/>
    <path d="M8 20 Q15 15 22 20" stroke="#fff" stroke-width="2" fill="none"/>
    <path d="M8 25 Q15 20 22 25" stroke="#fff" stroke-width="2" fill="none"/>
    <!-- Toe separators -->
    <circle cx="12" cy="12" r="1.5" fill="#fff" opacity="0.8"/>
    <circle cx="18" cy="12" r="1.5" fill="#fff" opacity="0.8"/>
    <circle cx="15" cy="15" r="1.5" fill="#fff" opacity="0.8"/>
  </g>
  
  <!-- Right sock -->
  <g transform="translate(55, 30)">
    <ellipse cx="15" cy="20" rx="12" ry="18" fill="url(#sockGradient)" stroke="#fff" stroke-width="2"/>
    <ellipse cx="15" cy="20" rx="10" ry="16" fill="rgba(255,255,255,0.2)"/>
    <path d="M8 15 Q15 10 22 15" stroke="#fff" stroke-width="2" fill="none"/>
    <path d="M8 20 Q15 15 22 20" stroke="#fff" stroke-width="2" fill="none"/>
    <path d="M8 25 Q15 20 22 25" stroke="#fff" stroke-width="2" fill="none"/>
    <!-- Toe separators -->
    <circle cx="12" cy="12" r="1.5" fill="#fff" opacity="0.8"/>
    <circle cx="18" cy="12" r="1.5" fill="#fff" opacity="0.8"/>
    <circle cx="15" cy="15" r="1.5" fill="#fff" opacity="0.8"/>
  </g>
  
  <!-- Non-slip dots -->
  <circle cx="25" cy="55" r="2" fill="#fff" opacity="0.6"/>
  <circle cx="35" cy="55" r="2" fill="#fff" opacity="0.6"/>
  <circle cx="65" cy="55" r="2" fill="#fff" opacity="0.6"/>
  <circle cx="75" cy="55" r="2" fill="#fff" opacity="0.6"/>
  
  <!-- Decorative elements -->
  <circle cx="50" cy="70" r="3" fill="url(#sockGradient)" opacity="0.8"/>
  <path d="M45 70 L55 70" stroke="#fff" stroke-width="2" stroke-linecap="round"/>
</svg>
